<svg width="81" height="52" viewBox="0 0 81 52" fill="none" xmlns="http://www.w3.org/2000/svg">
<path d="M5.78419 13.3242H1.29466H0.0859375V14.6221V40.7518V42.0497H1.29466H5.78419H6.99291V40.7518V14.6221V13.3242H5.78419Z" fill="#0A0E0D"/>
<path fill-rule="evenodd" clip-rule="evenodd" d="M46.708 40.7519V14.5356V13.2378H48.0031H53.7013L54.4783 13.3243L54.8237 13.8435L63.8891 29.9366V14.5356V13.2378H65.2705H69.501H70.8824V14.5356V40.8385V42.0498H69.501H63.7164H63.0257L62.594 41.4441L53.615 25.4375V40.7519V41.9632H52.2336H48.0031H46.708V40.7519Z" fill="#0A0E0D"/>
<path fill-rule="evenodd" clip-rule="evenodd" d="M9.84243 11.4208H0V4.49902H8.46104C8.46104 7.26774 10.7921 9.51733 13.6413 9.51733C16.4904 9.51733 18.8215 7.26774 18.8215 4.49902H70.8828V11.4208H16.8357V42.0498H9.84243V11.4208Z" fill="#001F5B"/>
<path fill-rule="evenodd" clip-rule="evenodd" d="M74.1638 38.5889C74.4229 38.5889 74.7682 38.6754 75.0272 38.8484C75.2862 39.0215 75.5452 39.1945 75.7179 39.4541C75.8906 39.7137 75.9769 40.0597 75.9769 40.3193C75.9769 40.5789 75.8906 40.925 75.7179 41.1845C75.5452 41.4441 75.3726 41.7037 75.1136 41.7902C74.8545 41.9632 74.5955 42.0498 74.2502 42.0498C73.9912 42.0498 73.6458 41.9632 73.3868 41.7902C73.1278 41.6172 72.8688 41.4441 72.7824 41.1845C72.6098 40.925 72.5234 40.5789 72.5234 40.3193C72.5234 39.9732 72.6098 39.7137 72.7824 39.4541C72.9551 39.1945 73.1278 38.935 73.4731 38.8484C73.6458 38.6754 73.9048 38.5889 74.1638 38.5889ZM74.1638 38.8484C73.9048 38.8484 73.6458 38.935 73.4731 39.0215C73.2141 39.108 73.0415 39.3676 72.9551 39.5406C72.7824 39.8002 72.7824 40.0597 72.7824 40.2328C72.7824 40.4924 72.8688 40.7519 72.9551 40.925C73.0415 41.1845 73.3005 41.3576 73.4731 41.4441C73.7322 41.5306 73.9048 41.6172 74.1638 41.6172C74.4229 41.6172 74.6819 41.5306 74.8545 41.4441C75.1135 41.3576 75.2862 41.098 75.3726 40.925C75.5452 40.6654 75.5452 40.4924 75.5452 40.2328C75.5452 39.9732 75.4589 39.7137 75.3726 39.5406C75.1999 39.281 75.0272 39.108 74.8545 39.0215C74.6819 38.935 74.4229 38.8484 74.1638 38.8484Z" fill="#0A0E0D"/>
<path d="M74.1638 38.5889C74.4229 38.5889 74.7682 38.6754 75.0272 38.8484C75.2862 39.0215 75.5452 39.1945 75.7179 39.4541C75.8906 39.7137 75.9769 40.0597 75.9769 40.3193C75.9769 40.5789 75.8906 40.925 75.7179 41.1845C75.5452 41.4441 75.3726 41.7037 75.1136 41.7902C74.8545 41.9632 74.5955 42.0498 74.2502 42.0498C73.9912 42.0498 73.6458 41.9632 73.3868 41.7902C73.1278 41.6172 72.8688 41.4441 72.7824 41.1845C72.6098 40.925 72.5234 40.5789 72.5234 40.3193C72.5234 39.9732 72.6098 39.7137 72.7824 39.4541C72.9551 39.1945 73.1278 38.935 73.4731 38.8484C73.6458 38.6754 73.9048 38.5889 74.1638 38.5889ZM74.1638 38.8484C73.9048 38.8484 73.6458 38.935 73.4731 39.0215C73.2141 39.108 73.0415 39.3676 72.9551 39.5406C72.7824 39.8002 72.7824 40.0597 72.7824 40.2328C72.7824 40.4924 72.8688 40.7519 72.9551 40.925C73.0415 41.1845 73.3005 41.3576 73.4731 41.4441C73.7322 41.5306 73.9048 41.6172 74.1638 41.6172C74.4229 41.6172 74.6819 41.5306 74.8545 41.4441C75.1135 41.3576 75.2862 41.098 75.3726 40.925C75.5452 40.6654 75.5452 40.4924 75.5452 40.2328C75.5452 39.9732 75.4589 39.7137 75.3726 39.5406C75.1999 39.281 75.0272 39.108 74.8545 39.0215C74.6819 38.935 74.4229 38.8484 74.1638 38.8484Z" stroke="#0A0E0D" stroke-width="0.227035" stroke-miterlimit="2.414"/>
<path fill-rule="evenodd" clip-rule="evenodd" d="M73.8186 40.2328H74.1639C74.3366 40.2328 74.4229 40.2328 74.5093 40.1463C74.5956 40.0598 74.5956 40.0598 74.5956 39.9732C74.5956 39.8867 74.5956 39.8867 74.5956 39.8002L74.5093 39.7137C74.4229 39.7137 74.3366 39.7137 74.2503 39.7137H73.9049V40.2328M73.5596 41.1846V39.4541H74.1639C74.3366 39.4541 74.5093 39.4541 74.5956 39.5406C74.682 39.5406 74.7683 39.6271 74.7683 39.7137C74.8546 39.8002 74.8546 39.8867 74.8546 39.9732C74.8546 40.0598 74.8546 40.2328 74.682 40.3193C74.5956 40.4058 74.5093 40.4924 74.3366 40.4924C74.4229 40.4924 74.4229 40.5789 74.5093 40.5789C74.5956 40.6654 74.682 40.7519 74.7683 40.925L74.941 41.2711H74.5956L74.4229 41.0115C74.3366 40.8385 74.2503 40.6654 74.1639 40.5789C74.0776 40.5789 74.0776 40.4924 73.9049 40.4924H73.7322V41.1846H73.5596Z" fill="#0A0E0D"/>
<path d="M73.8186 40.2328H74.1639C74.3366 40.2328 74.4229 40.2328 74.5093 40.1463C74.5956 40.0598 74.5956 40.0598 74.5956 39.9732C74.5956 39.8867 74.5956 39.8867 74.5956 39.8002L74.5093 39.7137C74.4229 39.7137 74.3366 39.7137 74.2503 39.7137H73.9049V40.2328M73.5596 41.1846V39.4541H74.1639C74.3366 39.4541 74.5093 39.4541 74.5956 39.5406C74.682 39.5406 74.7683 39.6271 74.7683 39.7137C74.8546 39.8002 74.8546 39.8867 74.8546 39.9732C74.8546 40.0598 74.8546 40.2328 74.682 40.3193C74.5956 40.4058 74.5093 40.4924 74.3366 40.4924C74.4229 40.4924 74.4229 40.5789 74.5093 40.5789C74.5956 40.6654 74.682 40.7519 74.7683 40.925L74.941 41.2711H74.5956L74.4229 41.0115C74.3366 40.8385 74.2503 40.6654 74.1639 40.5789C74.0776 40.5789 74.0776 40.4924 73.9049 40.4924H73.7322V41.1846H73.5596Z" stroke="#0A0E0D" stroke-width="0.227035" stroke-miterlimit="2.414"/>
<path fill-rule="evenodd" clip-rule="evenodd" d="M20.203 13.8435C20.8074 13.2378 21.498 13.2378 22.3614 13.2378C28.7504 13.2378 41.0966 13.2378 41.0966 13.2378C42.6506 13.2378 42.996 13.4108 43.255 13.7569C43.6867 14.1895 43.773 14.3626 43.773 15.8335C43.773 23.534 43.773 31.494 43.773 39.1945C43.773 41.0115 43.514 41.8767 41.0966 41.8767H22.0161C20.203 41.8767 19.5986 40.7519 19.5986 39.8867V39.2811V15.92C19.685 14.9682 19.5123 14.4491 20.203 13.8435ZM27.4553 20.2461H36.0027C36.5207 20.2461 36.8661 20.5922 36.8661 21.0248V34.6088C36.8661 35.0415 36.4344 35.3875 36.0027 35.3875H27.4553C27.0236 35.3875 26.5919 35.0415 26.5919 34.6088V21.0248C26.5919 20.5922 26.9373 20.2461 27.4553 20.2461Z" fill="#0A0E0D"/>
<path fill-rule="evenodd" clip-rule="evenodd" d="M11.3969 4.15303C11.3969 4.0665 11.3969 4.0665 11.3105 3.97998L11.3969 4.15303Z" fill="#E0091D"/>
<path fill-rule="evenodd" clip-rule="evenodd" d="M13.5551 0C15.9726 0 17.872 1.90349 17.872 4.32612C17.872 6.74875 15.9726 8.65225 13.5551 8.65225C11.224 8.65225 9.23828 6.74875 9.23828 4.32612C9.32462 1.90349 11.224 0 13.5551 0Z" fill="#DD0031"/>
<path d="M0.517623 43.9536H0.0859375V46.8954H0.517623V43.9536Z" fill="#0A0E0D"/>
<path d="M1.8999 46.9819V44.2997H0.950195V43.9536H3.2813V44.2997H2.24525V46.9819H1.8999Z" fill="#0A0E0D"/>
<path d="M3.45312 45.511C3.45312 44.9919 3.6258 44.6458 3.88481 44.3862C4.14382 44.1267 4.48917 43.9536 4.92086 43.9536C5.17987 43.9536 5.43888 44.0401 5.69789 44.1267C5.9569 44.2997 6.04324 44.4727 6.21591 44.6458C6.30225 44.9054 6.38859 45.1649 6.38859 45.4245C6.38859 45.6841 6.30225 46.0302 6.21591 46.2032C6.12958 46.4628 5.9569 46.6358 5.69789 46.7223C5.43888 46.8089 5.2662 46.8954 5.00719 46.8954C4.74818 46.8954 4.48917 46.8089 4.23016 46.7223C3.97115 46.5493 3.88481 46.3762 3.71214 46.2032C3.53946 46.0302 3.45312 45.7706 3.45312 45.511ZM3.88481 45.511C3.88481 45.8571 3.97115 46.1167 4.14382 46.3762C4.3165 46.5493 4.57551 46.7223 4.83452 46.7223C5.09353 46.7223 5.35254 46.6358 5.52522 46.3762C5.69789 46.2032 5.78423 45.8571 5.78423 45.511C5.78423 45.2514 5.78423 45.0784 5.69789 44.9054C5.69789 44.6458 5.52522 44.4727 5.43888 44.3862C5.2662 44.2997 5.09353 44.2132 4.92086 44.2132C4.66184 44.2132 4.40283 44.2997 4.23016 44.4727C3.97115 44.7323 3.88481 45.0784 3.88481 45.511Z" fill="#0A0E0D"/>
<path d="M6.82031 46.9819V43.9536H7.16566L8.80607 46.2897V43.9536H9.15141V46.9819H8.71973L7.16566 44.6458V46.9819H6.82031Z" fill="#0A0E0D"/>
<path d="M10.7918 47.1546L11.1372 47.2411C11.1372 47.3276 11.2235 47.4141 11.2235 47.5007C11.3098 47.5872 11.3962 47.5872 11.5688 47.5872C11.7415 47.5872 11.8279 47.5872 12.0005 47.5007C12.0869 47.4141 12.1732 47.3276 12.1732 47.2411C12.1732 47.1546 12.1732 46.9815 12.1732 46.8085C12.0005 46.9815 11.8279 47.068 11.5688 47.068C11.3098 47.068 11.0508 46.9815 10.8782 46.7219C10.7055 46.5489 10.6191 46.2893 10.6191 45.9432C10.6191 45.7702 10.6191 45.5106 10.7055 45.3376C10.7918 45.1645 10.8782 44.9915 11.0508 44.905C11.2235 44.8185 11.3962 44.7319 11.5688 44.7319C11.8279 44.7319 12.0005 44.8185 12.1732 45.078V44.8185H12.6049V46.6354C12.6049 46.9815 12.6049 47.2411 12.5186 47.3276C12.4322 47.5007 12.3459 47.5872 12.1732 47.6737C12.0005 47.7602 11.8279 47.7602 11.6552 47.7602C11.3962 47.7602 11.2235 47.6737 11.0508 47.5872C10.8782 47.5007 10.7918 47.3276 10.7918 47.1546ZM11.1372 45.8567C11.1372 46.1163 11.2235 46.3759 11.3098 46.4624C11.3962 46.5489 11.5688 46.6354 11.7415 46.6354C11.9142 46.6354 12.0869 46.5489 12.1732 46.4624C12.2595 46.3759 12.3459 46.1163 12.3459 45.8567C12.3459 45.5972 12.2595 45.4241 12.1732 45.2511C12.0869 45.078 11.9142 45.078 11.7415 45.078C11.5688 45.078 11.4825 45.1645 11.3098 45.2511C11.1372 45.4241 11.1372 45.5972 11.1372 45.8567Z" fill="#0A0E0D"/>
<path d="M13.21 46.9819V44.8188H13.5553V45.1649C13.6416 44.9919 13.728 44.9054 13.8143 44.9054C13.9007 44.8188 13.987 44.8188 14.0733 44.8188C14.1597 44.8188 14.3323 44.8188 14.4187 44.9054L14.3323 45.2515C14.246 45.1649 14.1597 45.1649 14.0733 45.1649C13.987 45.1649 13.9007 45.1649 13.9007 45.2515C13.8143 45.338 13.8143 45.338 13.728 45.4245C13.728 45.5975 13.6416 45.6841 13.6416 45.8571V46.9819H13.21Z" fill="#0A0E0D"/>
<path d="M14.418 45.8567C14.418 45.4241 14.5043 45.1645 14.7633 44.9915C14.936 44.8185 15.195 44.7319 15.454 44.7319C15.713 44.7319 15.972 44.8185 16.1447 44.9915C16.3174 45.1645 16.4037 45.4241 16.4037 45.7702C16.4037 46.0298 16.4037 46.2893 16.3174 46.4624C16.231 46.6354 16.1447 46.722 15.972 46.8085C15.7994 46.895 15.6267 46.9815 15.454 46.9815C15.195 46.9815 14.936 46.895 14.7633 46.7219C14.5043 46.5489 14.418 46.2028 14.418 45.8567ZM14.7633 45.8567C14.7633 46.1163 14.8497 46.3759 14.936 46.4624C15.0223 46.6354 15.195 46.6354 15.3677 46.6354C15.5404 46.6354 15.713 46.5489 15.7994 46.4624C15.8857 46.2893 15.972 46.1163 15.972 45.8567C15.972 45.5972 15.8857 45.4241 15.7994 45.2511C15.713 45.078 15.5404 45.078 15.3677 45.078C15.195 45.078 15.0223 45.1645 14.936 45.2511C14.8497 45.4241 14.7633 45.5972 14.7633 45.8567Z" fill="#0A0E0D"/>
<path d="M18.3033 46.9819V46.6358C18.1306 46.8954 17.8716 46.9819 17.6126 46.9819C17.5262 46.9819 17.3536 46.9819 17.2672 46.8954C17.1809 46.8089 17.0945 46.8089 17.0082 46.7223C16.9219 46.6358 16.9219 46.5493 16.9219 46.4628C16.9219 46.3763 16.9219 46.2897 16.9219 46.1167V44.8188H17.2672V46.0302C17.2672 46.2032 17.2672 46.3763 17.2672 46.3763C17.2672 46.4628 17.3536 46.5493 17.4399 46.6358C17.5262 46.7223 17.6126 46.7223 17.6989 46.7223C17.7852 46.7223 17.8716 46.7223 18.0443 46.6358C18.1306 46.5493 18.2169 46.4628 18.2169 46.3763C18.2169 46.2897 18.3033 46.1167 18.3033 45.9436V44.8188H18.6486V46.9819H18.3033Z" fill="#0A0E0D"/>
<path d="M19.167 47.7602V44.8185H19.5123V45.078C19.5987 44.9915 19.685 44.905 19.7714 44.8185C19.8577 44.7319 20.0304 44.7319 20.1167 44.7319C20.2894 44.7319 20.462 44.8185 20.6347 44.905C20.8074 44.9915 20.8937 45.1645 20.9801 45.3376C21.0664 45.5106 21.0664 45.6837 21.0664 45.9432C21.0664 46.2028 21.0664 46.3759 20.9801 46.5489C20.8937 46.722 20.8074 46.895 20.6347 46.9815C20.462 47.068 20.2894 47.1546 20.1167 47.1546C20.0304 47.1546 19.8577 47.1546 19.7714 47.068C19.685 46.9815 19.5987 46.9815 19.5123 46.895V47.9333H19.167V47.7602ZM19.5123 45.8567C19.5123 46.1163 19.5987 46.3759 19.685 46.4624C19.7714 46.6354 19.944 46.6354 20.1167 46.6354C20.2894 46.6354 20.3757 46.5489 20.5484 46.4624C20.6347 46.2893 20.7211 46.1163 20.7211 45.8567C20.7211 45.5972 20.6347 45.3376 20.5484 45.2511C20.462 45.078 20.2894 45.078 20.1167 45.078C19.944 45.078 19.8577 45.1645 19.685 45.3376C19.5123 45.4241 19.5123 45.5972 19.5123 45.8567Z" fill="#0A0E0D"/>
</svg>
